# xmcd CD database file generated by OrangeCD 5.2
#
# Track frame offsets:
#	150
#	14875
#	30150
#	45522
#	66390
#	82007
#	99285
#	112090
#	124077
#	141417
#	159312
#
# Disc length: 2357 seconds
#
# Revision: 2
# Processed by: cddbd v1.5PL3 Copyright (c) Steve Scherf et al.
# Submitted via: OrangeCD 5.2
#
DISCID=9209330b
DTITLE=Jill King - Jillbilly
DYEAR=2003
DGENRE=Country
TTITLE0=98.6 Degrees
TTITLE1=It's Me Again
TTITLE2=One Mississippi
TTITLE3=Not Knowing Anymore
TTITLE4=Down 'n' Out
TTITLE5=Three Months, Two Weeks, One day
TTITLE6=After All
TTITLE7=Hand Me Down Heartache
TTITLE8=The Part I Don't Understand
TTITLE9=Makes Perfect Sense To Me
TTITLE10=Down The Fields To Hay
EXTD=
EXTT0=
EXTT1=
EXTT2=
EXTT3=
EXTT4=
EXTT5=
EXTT6=
EXTT7=
EXTT8=
EXTT9=
EXTT10=
PLAYORDER=
